<svg width="42" height="42" viewBox="0 0 42 42" fill="none" xmlns="http://www.w3.org/2000/svg">
<g clip-path="url(#clip0_73_163)">
<path d="M21 9.88477C14.871 9.88477 9.88477 14.871 9.88477 21C9.88477 27.129 14.871 32.1152 21 32.1152C27.129 32.1152 32.1152 27.129 32.1152 21C32.1152 14.871 27.129 9.88477 21 9.88477ZM21 29.6543C16.228 29.6543 12.3457 25.772 12.3457 21C12.3457 16.228 16.228 12.3457 21 12.3457C25.772 12.3457 29.6543 16.228 29.6543 21C29.6543 25.772 25.772 29.6543 21 29.6543Z" fill="#214651"/>
<path d="M23.1642 17.9878L19.9862 21.402L18.8053 20.221C18.3248 19.7406 17.5457 19.7406 17.0652 20.221C16.5847 20.7015 16.5847 21.4806 17.0652 21.9612L19.1479 24.0439C19.3788 24.2748 19.6919 24.4043 20.0179 24.4043C20.0253 24.4043 20.0327 24.4042 20.04 24.4041C20.3739 24.3981 20.691 24.2566 20.9186 24.0122L24.9654 19.6645C25.4285 19.1672 25.4005 18.3885 24.9032 17.9256C24.4058 17.4625 23.6272 17.4904 23.1642 17.9878Z" fill="#214651"/>
<path d="M40.7695 19.7695H39.1339C38.8422 15.3778 36.9935 11.2891 33.8522 8.14775C30.7109 5.00653 26.6222 3.15771 22.2305 2.86609V1.23047C22.2305 0.550922 21.6795 0 21 0C20.3205 0 19.7695 0.550922 19.7695 1.23047V2.86609C15.3778 3.15779 11.2891 5.00661 8.14775 8.14784C5.00653 11.2891 3.15771 15.3778 2.86609 19.7695H1.23047C0.550922 19.7695 0 20.3205 0 21C0 21.6795 0.550922 22.2305 1.23047 22.2305H2.86609C3.15779 26.6222 5.00653 30.7109 8.14784 33.8522C11.2891 36.9935 15.3779 38.8423 19.7696 39.1339V40.7695C19.7696 41.4491 20.3205 42 21.0001 42C21.6796 42 22.2306 41.4491 22.2306 40.7695V39.1339C26.6223 38.8422 30.711 36.9934 33.8523 33.8522C36.9935 30.7109 38.8424 26.6222 39.1341 22.2305H40.7695C41.4491 22.2305 42 21.6795 42 21C42 20.3205 41.4491 19.7695 40.7695 19.7695ZM22.2305 36.6668V35.121C22.2305 34.4415 21.6795 33.8906 21 33.8906C20.3205 33.8906 19.7695 34.4415 19.7695 35.121V36.6668C12.0834 36.0687 5.93127 29.9166 5.33318 22.2305H6.87889C7.55844 22.2305 8.10936 21.6795 8.10936 21C8.10936 20.3205 7.55844 19.7695 6.87889 19.7695H5.33318C5.93127 12.0834 12.0834 5.93127 19.7695 5.33318V6.87898C19.7695 7.55852 20.3205 8.10945 21 8.10945C21.6795 8.10945 22.2305 7.55852 22.2305 6.87898V5.33318C29.9166 5.93127 36.0687 12.0834 36.6668 19.7695H35.1211C34.4416 19.7695 33.8906 20.3205 33.8906 21C33.8906 21.6795 34.4416 22.2305 35.1211 22.2305H36.6668C36.0687 29.9166 29.9166 36.0687 22.2305 36.6668Z" fill="#214651"/>
</g>
<defs>
<clipPath id="clip0_73_163">
<rect width="42" height="42" fill="white"/>
</clipPath>
</defs>
</svg>
