<svg width="42" height="42" viewBox="0 0 42 42" fill="none" xmlns="http://www.w3.org/2000/svg">
<g clip-path="url(#clip0_73_202)">
<path d="M24.4959 23.379C26.4473 23.379 28.0866 22.1299 28.3938 20.4091C28.6258 19.1101 28.0412 17.4151 25.7052 16.5535C24.6146 16.1511 23.5979 15.7134 23.2674 15.5689C23.0728 15.4041 23.0799 15.1792 23.0935 15.0844C23.1136 14.9446 23.2167 14.6024 23.7394 14.445C24.9684 14.075 26.1175 14.9918 26.1289 15.001L26.1212 14.9946L26.1216 14.9942C26.3356 15.1743 26.6114 15.2831 26.913 15.2831C27.5925 15.2831 28.1435 14.7322 28.1435 14.0527C28.1435 13.6747 27.9727 13.3369 27.7044 13.1111L27.7048 13.1107C27.7032 13.1094 27.6995 13.1063 27.6966 13.104C27.6961 13.1035 27.6954 13.103 27.6948 13.1024C27.5235 12.9612 25.4907 11.347 23.0296 12.0886C21.7454 12.4754 20.8364 13.4893 20.6577 14.7346C20.4896 15.9054 20.9973 17.0318 21.9825 17.6741C22.0369 17.7095 22.0939 17.7406 22.1532 17.767C22.2055 17.7904 23.4512 18.3449 24.8538 18.8622C25.1435 18.9691 26.0805 19.3653 25.9714 19.9765C25.8888 20.4393 25.3144 20.9179 24.4961 20.9179C23.6277 20.9179 22.7931 20.5691 22.2634 19.9846C21.8071 19.481 21.0289 19.4428 20.5253 19.8991C20.0217 20.3554 19.9835 21.1336 20.4398 21.6372C21.4427 22.7441 22.9212 23.379 24.4959 23.379Z" fill="#214651"/>
<path d="M41.6916 28.3775C40.9797 26.4216 38.8254 25.4426 36.9074 26.1338C36.9656 25.7689 36.996 25.3969 36.996 25.0195V21.0659C36.996 18.0793 36.1661 15.1579 34.596 12.6173C33.2213 10.393 31.3317 8.54577 29.0899 7.224L31.1755 1.66245C31.4771 0.858047 30.8825 0 30.0234 0H18.539C17.6799 0 17.0852 0.858047 17.3869 1.66253L19.4724 7.22408C17.2306 8.54593 15.341 10.3932 13.9664 12.6174C12.3963 15.1579 11.5663 18.0794 11.5663 21.066V22.9243C10.9491 23.0329 10.3379 23.1949 9.74008 23.4125L7.20827 24.3341L7.09376 24.0194C6.86136 23.3808 6.15524 23.0516 5.51662 23.284L0.891619 24.9674C0.405502 25.1443 0.0819702 25.6063 0.0819702 26.1236V40.7695C0.0819702 41.4491 0.632892 42 1.31244 42H6.64316C6.78671 42 6.92912 41.9749 7.06398 41.9258L11.689 40.2424C12.1845 40.062 12.4923 39.5963 12.4975 39.0984L23.0106 40.5432C24.279 40.7175 25.5702 40.4918 26.7042 39.8975L39.9107 32.976C41.572 32.1054 42.3331 30.1401 41.6916 28.3775ZM28.2478 2.46094L26.7097 6.5625H21.8527L20.3146 2.46094H28.2478ZM14.0273 21.0659C14.0273 15.9729 16.8051 11.3847 21.2969 9.02344H27.2655C31.7573 11.3848 34.5351 15.9729 34.5351 21.0659V25.0195C34.5351 25.9553 34.2541 26.8419 33.7215 27.6008L29.2353 29.6923C29.0193 28.1507 27.8363 26.8548 26.2206 26.5699L22.8716 25.9795C21.6883 25.7708 20.5846 25.3219 19.5915 24.6453C17.9254 23.5102 15.9939 22.8779 14.0273 22.7749V21.0659ZM6.42618 39.5391H2.54291V26.9851L5.20211 26.0172L9.69111 38.3507L6.42618 39.5391ZM38.7682 30.7963L25.5618 37.7178C24.8813 38.0744 24.1066 38.2098 23.3456 38.1052L11.6348 36.4958L8.04991 26.6465L10.5817 25.7249C13.1218 24.8004 15.9719 25.1571 18.2058 26.679C19.4891 27.5533 20.915 28.1334 22.4443 28.4029L25.7932 28.9934C26.4624 29.1113 26.9093 29.7495 26.7913 30.4188C26.6732 31.088 26.0351 31.5349 25.3658 31.4169L17.5408 30.0371C16.8716 29.9191 16.2334 30.366 16.1153 31.0352C15.9973 31.7044 16.4442 32.3426 17.1134 32.4607L24.9385 33.8404C26.0879 34.0431 27.2063 33.6897 28.0193 32.9743L37.6291 28.4941C38.3121 28.1757 39.1213 28.5109 39.379 29.219C39.5991 29.8237 39.338 30.4977 38.7682 30.7963Z" fill="#214651"/>
</g>
<defs>
<clipPath id="clip0_73_202">
<rect width="42" height="42" fill="white"/>
</clipPath>
</defs>
</svg>
