<svg width="22" height="22" viewBox="0 0 22 22" fill="none" xmlns="http://www.w3.org/2000/svg">
<path d="M18.3333 3.66675H3.66659C2.6555 3.66675 1.83325 4.489 1.83325 5.50008V16.5001C1.83325 17.5112 2.6555 18.3334 3.66659 18.3334H18.3333C19.3443 18.3334 20.1666 17.5112 20.1666 16.5001V5.50008C20.1666 4.489 19.3443 3.66675 18.3333 3.66675ZM18.3333 5.50008V5.9685L10.9999 11.6729L3.66659 5.96941V5.50008H18.3333ZM3.66659 16.5001V8.29041L10.4371 13.5567C10.5976 13.6827 10.7958 13.7513 10.9999 13.7513C11.204 13.7513 11.4022 13.6827 11.5628 13.5567L18.3333 8.29041L18.3351 16.5001H3.66659Z" fill="#F9F9F9"/>
</svg>
