<svg width="30" height="30" viewBox="0 0 30 30" fill="none" xmlns="http://www.w3.org/2000/svg">
<path d="M22.3122 18.8937L22.3122 18.8937L21.9807 19.2252C21.9807 19.2252 21.9807 19.2252 21.9807 19.2252C21.9807 19.2252 21.9807 19.2252 21.9807 19.2252C21.9014 19.3045 21.7728 19.3045 21.6935 19.2252C21.6935 19.2252 21.6935 19.2252 21.6935 19.2252L15.3536 12.8852L15 12.5317L14.6465 12.8852L8.30654 19.2252C8.22721 19.3045 8.09867 19.3045 8.01934 19.2252L7.66578 19.5787L8.01934 19.2252L7.68784 18.8937C7.60851 18.8143 7.60851 18.6858 7.68784 18.6065L14.8564 11.4379C14.9358 11.3585 15.0643 11.3585 15.1436 11.4379L22.3122 18.6065C22.3122 18.6065 22.3122 18.6065 22.3122 18.6065C22.3915 18.6858 22.3915 18.8143 22.3122 18.8937Z" fill="black" stroke="black"/>
</svg>
