<svg width="22" height="22" viewBox="0 0 22 22" fill="none" xmlns="http://www.w3.org/2000/svg">
<path d="M16.2316 11.2684C16.1465 11.1832 16.0455 11.1156 15.9343 11.0695C15.8231 11.0234 15.7039 10.9997 15.5835 10.9997C15.4631 10.9997 15.3439 11.0234 15.2327 11.0695C15.1215 11.1156 15.0204 11.1832 14.9354 11.2684L13.4742 12.7296C12.7968 12.5279 11.5327 12.0696 10.7316 11.2684C9.93039 10.4673 9.47206 9.20319 9.27039 8.52577L10.7316 7.06461C10.8168 6.97955 10.8844 6.87853 10.9305 6.76733C10.9766 6.65612 11.0003 6.53691 11.0003 6.41653C11.0003 6.29614 10.9766 6.17693 10.9305 6.06572C10.8844 5.95452 10.8168 5.8535 10.7316 5.76844L7.06489 2.10178C6.97984 2.01658 6.87882 1.94898 6.76761 1.90286C6.65641 1.85675 6.5372 1.83301 6.41681 1.83301C6.29642 1.83301 6.17721 1.85675 6.06601 1.90286C5.9548 1.94898 5.85378 2.01658 5.76873 2.10178L3.28273 4.58778C2.93439 4.93611 2.73823 5.41461 2.74556 5.90319C2.76664 7.20853 3.11223 11.7424 6.68539 15.3155C10.2586 18.8887 14.7924 19.2334 16.0986 19.2554H16.1243C16.6083 19.2554 17.0657 19.0647 17.4122 18.7182L19.8982 16.2322C19.9834 16.1471 20.051 16.0461 20.0971 15.9349C20.1433 15.8237 20.167 15.7045 20.167 15.5841C20.167 15.4637 20.1433 15.3445 20.0971 15.2333C20.051 15.1221 19.9834 15.0211 19.8982 14.936L16.2316 11.2684ZM16.1151 17.4211C14.9711 17.4019 11.057 17.0948 7.98156 14.0184C4.89606 10.9329 4.59723 7.00503 4.57889 5.88394L6.41681 4.04603L8.78731 6.41653L7.60206 7.60178C7.49432 7.70944 7.4151 7.84225 7.37157 7.98821C7.32803 8.13417 7.32156 8.28868 7.35273 8.43778C7.37473 8.54319 7.91281 11.0429 9.43448 12.5646C10.9561 14.0863 13.4559 14.6244 13.5613 14.6464C13.7103 14.6784 13.865 14.6724 14.0111 14.629C14.1572 14.5856 14.29 14.5062 14.3973 14.3979L15.5835 13.2127L17.954 15.5832L16.1151 17.4211Z" fill="#F9F9F9"/>
</svg>
