<svg width="22" height="22" viewBox="0 0 22 22" fill="none" xmlns="http://www.w3.org/2000/svg">
<path d="M11.0001 12.8333C13.0223 12.8333 14.6668 11.1888 14.6668 9.16659C14.6668 7.14442 13.0223 5.49992 11.0001 5.49992C8.97797 5.49992 7.33347 7.14442 7.33347 9.16659C7.33347 11.1888 8.97797 12.8333 11.0001 12.8333ZM11.0001 7.33325C12.0112 7.33325 12.8335 8.1555 12.8335 9.16659C12.8335 10.1777 12.0112 10.9999 11.0001 10.9999C9.98905 10.9999 9.1668 10.1777 9.1668 9.16659C9.1668 8.1555 9.98905 7.33325 11.0001 7.33325Z" fill="#F9F9F9"/>
<path d="M10.4685 19.9961C10.6236 20.1069 10.8095 20.1664 11.0002 20.1664C11.1908 20.1664 11.3767 20.1069 11.5318 19.9961C11.8105 19.799 18.3601 15.0699 18.3335 9.16659C18.3335 5.12317 15.0436 1.83325 11.0002 1.83325C6.95675 1.83325 3.66683 5.12317 3.66683 9.162C3.64025 15.0699 10.1898 19.799 10.4685 19.9961ZM11.0002 3.66659C14.0334 3.66659 16.5002 6.13334 16.5002 9.17117C16.5194 13.2393 12.4778 16.8923 11.0002 18.0903C9.52341 16.8913 5.48091 13.2375 5.50016 9.16659C5.50016 6.13334 7.96691 3.66659 11.0002 3.66659Z" fill="#F9F9F9"/>
</svg>
