<svg width="42" height="42" viewBox="0 0 42 42" fill="none" xmlns="http://www.w3.org/2000/svg">
<path d="M10.5 36.75H7.875C6.83071 36.75 5.82919 36.3352 5.09077 35.5967C4.35234 34.8583 3.9375 33.8568 3.9375 32.8125V24.9375C3.9375 23.8932 4.35234 22.8917 5.09077 22.1533C5.82919 21.4148 6.83071 21 7.875 21H10.5C11.5443 21 12.5458 21.4148 13.2842 22.1533C14.0227 22.8917 14.4375 23.8932 14.4375 24.9375V32.8125C14.4375 33.8568 14.0227 34.8583 13.2842 35.5967C12.5458 36.3352 11.5443 36.75 10.5 36.75ZM7.875 23.625C7.5269 23.625 7.19306 23.7633 6.94692 24.0094C6.70078 24.2556 6.5625 24.5894 6.5625 24.9375V32.8125C6.5625 33.1606 6.70078 33.4944 6.94692 33.7406C7.19306 33.9867 7.5269 34.125 7.875 34.125H10.5C10.8481 34.125 11.1819 33.9867 11.4281 33.7406C11.6742 33.4944 11.8125 33.1606 11.8125 32.8125V24.9375C11.8125 24.5894 11.6742 24.2556 11.4281 24.0094C11.1819 23.7633 10.8481 23.625 10.5 23.625H7.875Z" fill="#214651"/>
<path d="M24.2307 36.75H21.6057C20.5614 36.75 19.5599 36.3352 18.8215 35.5967C18.0831 34.8583 17.6682 33.8568 17.6682 32.8125V17.0625C17.6682 16.0182 18.0831 15.0167 18.8215 14.2783C19.5599 13.5398 20.5614 13.125 21.6057 13.125H24.2307C25.275 13.125 26.2765 13.5398 27.0149 14.2783C27.7534 15.0167 28.1682 16.0182 28.1682 17.0625V32.8125C28.1682 33.8568 27.7534 34.8583 27.0149 35.5967C26.2765 36.3352 25.275 36.75 24.2307 36.75ZM21.6057 15.75C21.2576 15.75 20.9238 15.8883 20.6776 16.1344C20.4315 16.3806 20.2932 16.7144 20.2932 17.0625V32.8125C20.2932 33.1606 20.4315 33.4944 20.6776 33.7406C20.9238 33.9867 21.2576 34.125 21.6057 34.125H24.2307C24.5788 34.125 24.9127 33.9867 25.1588 33.7406C25.4049 33.4944 25.5432 33.1606 25.5432 32.8125V17.0625C25.5432 16.7144 25.4049 16.3806 25.1588 16.1344C24.9127 15.8883 24.5788 15.75 24.2307 15.75H21.6057Z" fill="#214651"/>
<path d="M37.9615 36.75H35.3365C34.2923 36.75 33.2907 36.3352 32.5523 35.5967C31.8139 34.8583 31.399 33.8568 31.399 32.8125V9.1875C31.399 8.14321 31.8139 7.14169 32.5523 6.40327C33.2907 5.66484 34.2923 5.25 35.3365 5.25H37.9615C39.0058 5.25 40.0074 5.66484 40.7458 6.40327C41.4842 7.14169 41.899 8.14321 41.899 9.1875V32.8125C41.899 33.8568 41.4842 34.8583 40.7458 35.5967C40.0074 36.3352 39.0058 36.75 37.9615 36.75ZM35.3365 7.875C34.9885 7.875 34.6546 8.01328 34.4085 8.25942C34.1623 8.50556 34.024 8.8394 34.024 9.1875V32.8125C34.024 33.1606 34.1623 33.4944 34.4085 33.7406C34.6546 33.9867 34.9885 34.125 35.3365 34.125H37.9615C38.3096 34.125 38.6435 33.9867 38.8896 33.7406C39.1358 33.4944 39.274 33.1606 39.274 32.8125V9.1875C39.274 8.8394 39.1358 8.50556 38.8896 8.25942C38.6435 8.01328 38.3096 7.875 37.9615 7.875H35.3365Z" fill="#214651"/>
</svg>
