<svg width="140" height="57" viewBox="0 0 140 57" fill="none" xmlns="http://www.w3.org/2000/svg">
<path fill-rule="evenodd" clip-rule="evenodd" d="M38.5695 17.1387L27.06 39.6387H16.2493L21.066 30.3137H20.8499C16.8761 35.4722 10.9471 38.868 2.49927 39.6387V30.4428C2.49927 30.4428 7.90358 30.1235 11.0806 26.7834H2.49927V17.1388H12.1438V25.0713L12.3602 25.0704L16.3014 17.1388H23.5953V25.021L23.8116 25.0207L27.9006 17.1387H38.5695Z" fill="black"/>
<path d="M101.332 37.1552H104.438V19.3262H101.332V37.1552Z" fill="black"/>
<path fill-rule="evenodd" clip-rule="evenodd" d="M84.2085 36.9731C84.8835 37.2537 85.57 37.3941 86.2678 37.3941C87.4207 37.3941 88.4523 37.1135 89.3626 36.5521C90.2727 35.9909 90.9782 35.2172 91.4788 34.2311C91.9795 33.2375 92.2297 32.111 92.2297 30.8519C92.2297 29.5927 91.9718 28.4664 91.4561 27.4727C90.9402 26.4791 90.2235 25.7092 89.3056 25.163C88.3878 24.6093 87.3448 24.3363 86.1767 24.3438C85.4335 24.3438 84.7205 24.488 84.0377 24.7762C83.3551 25.0644 82.7862 25.474 82.3311 26.005C82.296 26.0454 82.2618 26.0862 82.2287 26.1275V19.3376H79.1112V37.1552H82.206L82.1997 35.4907C82.2797 35.5889 82.3653 35.6847 82.4562 35.7785C82.9492 36.2867 83.5333 36.6849 84.2085 36.9731ZM87.3942 34.0946C86.886 34.4056 86.3057 34.5611 85.6533 34.5611C85.0086 34.5611 84.417 34.4017 83.8785 34.0832C83.3398 33.757 82.9113 33.3134 82.5927 32.752C82.2817 32.1907 82.1262 31.5535 82.1262 30.8405C82.1187 30.1275 82.2703 29.4904 82.5813 28.9291C82.9 28.3602 83.3285 27.9202 83.8671 27.6093C84.4056 27.2907 85.0011 27.1352 85.6533 27.1428C86.3057 27.1352 86.886 27.2869 87.3942 27.5979C87.91 27.9013 88.3043 28.3374 88.5775 28.9063C88.8581 29.4676 88.9985 30.1124 88.9985 30.8405C88.9985 31.5687 88.8581 32.2135 88.5775 32.7747C88.3043 33.3361 87.91 33.776 87.3942 34.0946Z" fill="black"/>
<path d="M43.0693 20.4071H46.6192L49.7947 32.0041L53.1728 20.4071H56.1311L59.7947 31.7713L62.844 20.4071H66.098L61.2966 37.1552H58.236L54.5105 26.0532L51.0907 37.1552H47.996L43.0693 20.4071Z" fill="black"/>
<path fill-rule="evenodd" clip-rule="evenodd" d="M71.3405 37.4509C70.104 37.4586 68.989 37.1854 67.9954 36.6318C67.0093 36.0704 66.2319 35.2929 65.6629 34.2993C65.1017 33.3057 64.821 32.1717 64.821 30.8973C64.821 29.6609 65.1093 28.5422 65.6858 27.5409C66.2622 26.5397 67.0434 25.7584 68.0295 25.1971C69.0157 24.6358 70.1154 24.3552 71.329 24.3552C72.6944 24.3552 73.889 24.6586 74.913 25.2654C75.9447 25.8722 76.7145 26.7331 77.2228 27.8481C77.7385 28.9556 77.9244 30.2261 77.7803 31.6597H68.0344C68.0617 32.2308 68.2042 32.7504 68.4619 33.2184C68.7502 33.7342 69.1522 34.1362 69.6679 34.4244C70.1838 34.7127 70.7602 34.8568 71.3974 34.8568C71.8828 34.8492 72.3342 34.7658 72.7513 34.6066C73.1685 34.4397 73.5212 34.2159 73.8094 33.9352C74.1053 33.6546 74.3139 33.3361 74.4353 32.9796H77.6893C77.4921 33.8518 77.0977 34.6293 76.506 35.3119C75.9143 35.9871 75.171 36.5142 74.2759 36.8934C73.3809 37.2727 72.4024 37.4586 71.3405 37.4509ZM68.4733 28.5308C68.2915 28.8478 68.1655 29.1891 68.0954 29.5548H74.5558C74.5089 29.0928 74.3663 28.6718 74.128 28.2919C73.8549 27.8443 73.4833 27.4992 73.013 27.2565C72.5428 27.0062 72.0118 26.881 71.4202 26.881C70.7906 26.881 70.2179 27.0251 69.702 27.3134C69.1863 27.6016 68.7767 28.0074 68.4733 28.5308Z" fill="black"/>
<path d="M94.517 24.6169C94.517 23.6005 94.7483 22.6978 95.211 21.909C95.6736 21.1125 96.3223 20.4943 97.1566 20.0544C97.9985 19.6069 98.9809 19.3755 100.103 19.3604V22.1251C99.58 22.1327 99.1325 22.2427 98.7609 22.4551C98.3968 22.6599 98.1161 22.9595 97.9189 23.3539C97.7374 23.7171 97.6394 24.138 97.625 24.6169H100.035V27.2451H97.6232V37.1552H94.517V27.2451H92.5145V24.6169H94.517Z" fill="black"/>
<path fill-rule="evenodd" clip-rule="evenodd" d="M112.334 37.4281C111.067 37.4281 109.933 37.1513 108.932 36.5976C107.938 36.0363 107.157 35.2626 106.588 34.2765C106.027 33.2829 105.746 32.1565 105.746 30.8973C105.746 29.6306 106.027 28.5004 106.588 27.5067C107.157 26.5055 107.938 25.728 108.932 25.1743C109.933 24.6206 111.067 24.3437 112.334 24.3437C113.608 24.3437 114.746 24.6206 115.747 25.1743C116.756 25.728 117.541 26.5017 118.103 27.4954C118.664 28.489 118.948 29.623 118.956 30.8973C118.948 32.1565 118.664 33.2829 118.103 34.2765C117.549 35.2626 116.768 36.0363 115.759 36.5976C114.75 37.1513 113.608 37.4281 112.334 37.4281ZM112.334 34.5724C113.002 34.5724 113.593 34.4206 114.109 34.1173C114.625 33.8063 115.023 33.3739 115.304 32.8201C115.584 32.2589 115.725 31.6179 115.725 30.8973C115.725 30.1691 115.584 29.5244 115.304 28.9631C115.023 28.4018 114.625 27.9694 114.109 27.666C113.593 27.355 113.002 27.1995 112.334 27.1995C111.674 27.1995 111.086 27.355 110.57 27.666C110.062 27.9694 109.668 28.4018 109.387 28.9631C109.107 29.5244 108.97 30.1691 108.978 30.8973C108.978 31.6179 109.118 32.2589 109.399 32.8201C109.687 33.3739 110.081 33.8063 110.582 34.1173C111.09 34.4206 111.674 34.5724 112.334 34.5724Z" fill="black"/>
<path d="M122.312 24.6169H118.854L122.597 37.1552H125.623L128.085 29.1469L130.743 37.1552H133.724L137.479 24.6169H134.35L132.22 32.4212L129.867 24.6169H126.841L124.499 32.5931L122.312 24.6169Z" fill="black"/>
</svg>
