<svg width="21" height="22" viewBox="0 0 21 22" fill="none" xmlns="http://www.w3.org/2000/svg">
<g clip-path="url(#clip0_43_596)">
<path fill-rule="evenodd" clip-rule="evenodd" d="M13.4167 7.03188C12.5534 6.45501 11.5383 6.14709 10.5 6.14709V0.897095C12.5767 0.897095 14.6068 1.51291 16.3335 2.66666C18.0602 3.82042 19.406 5.46029 20.2007 7.3789C20.9954 9.29751 21.2034 11.4087 20.7982 13.4455C20.3931 15.4823 19.3931 17.3533 17.9246 18.8217C16.4562 20.2902 14.5852 21.2902 12.5484 21.6953C10.5117 22.1005 8.40042 21.8925 6.48181 21.0978C4.5632 20.3031 2.92332 18.9573 1.76957 17.2306C0.615815 15.5039 0 13.4738 0 11.3971H5.25C5.25 12.4354 5.55791 13.4505 6.13478 14.3138C6.71165 15.1772 7.5316 15.8501 8.49093 16.2475C9.45021 16.6448 10.5058 16.7488 11.5242 16.5462C12.5426 16.3436 13.4781 15.8436 14.2123 15.1094C14.9465 14.3752 15.4465 13.4397 15.6491 12.4213C15.8517 11.4029 15.7477 10.3473 15.3504 9.38802C14.953 8.42869 14.2801 7.60875 13.4167 7.03188Z" fill="#9C9C9C"/>
<path fill-rule="evenodd" clip-rule="evenodd" d="M5.25 0.897097C5.25 1.58654 5.11421 2.26923 4.85037 2.90618C4.58653 3.54314 4.19982 4.1219 3.71231 4.60941C3.2248 5.09692 2.64605 5.48363 2.00909 5.74747C1.37213 6.0113 0.689438 6.1471 2.29483e-07 6.1471L0 11.3971C1.37888 11.3971 2.74426 11.1255 4.01818 10.5978C5.2921 10.0702 6.44962 9.29673 7.4246 8.3217C8.39963 7.34672 9.17306 6.1892 9.70074 4.91527C10.2284 3.64135 10.5 2.27597 10.5 0.897095L5.25 0.897097Z" fill="#9C9C9C"/>
</g>
<defs>
<clipPath id="clip0_43_596">
<rect width="21" height="21" fill="white" transform="translate(0 0.897095)"/>
</clipPath>
</defs>
</svg>
