<svg width="21" height="22" viewBox="0 0 21 22" fill="none" xmlns="http://www.w3.org/2000/svg">
<g clip-path="url(#clip0_43_599)">
<path fill-rule="evenodd" clip-rule="evenodd" d="M5.25 0.897095C8.14947 0.897095 10.5 3.2476 10.5 6.14709V0.897095H15.75C18.6495 0.897095 21 3.2476 21 6.14709C21 9.04656 18.6495 11.3971 15.75 11.3971C18.6495 11.3971 21 13.7476 21 16.6471C21 18.0868 20.4205 19.3912 19.482 20.3396L19.4623 20.3594L19.4449 20.3767C18.4962 21.3166 17.1909 21.8971 15.75 21.8971C14.3189 21.8971 13.0215 21.3245 12.0745 20.3959C12.0622 20.3838 12.0499 20.3716 12.0377 20.3594C12.0262 20.3479 12.0147 20.3364 12.0033 20.3248C11.0735 19.3776 10.5 18.0793 10.5 16.6471C10.5 19.5466 8.14947 21.8971 5.25 21.8971C2.3505 21.8971 0 19.5466 0 16.6471V11.3971H5.25C2.3505 11.3971 0 9.04656 0 6.14709C0 3.2476 2.3505 0.897095 5.25 0.897095ZM9.45 6.14709C9.45 8.4667 7.56961 10.3471 5.25 10.3471V1.94709C7.56961 1.94709 9.45 3.8275 9.45 6.14709ZM19.95 16.6471C19.95 14.3275 18.0696 12.4471 15.75 12.4471C13.4304 12.4471 11.55 14.3275 11.55 16.6471H19.95ZM1.05 12.4471V16.6471C1.05 18.9667 2.9304 20.8471 5.25 20.8471C7.56961 20.8471 9.45 18.9667 9.45 16.6471V12.4471H1.05ZM11.55 10.3471V1.94709H15.75C18.0696 1.94709 19.95 3.8275 19.95 6.14709C19.95 8.4667 18.0696 10.3471 15.75 10.3471H11.55Z" fill="#9C9C9C"/>
</g>
<defs>
<clipPath id="clip0_43_599">
<rect width="21" height="21" fill="white" transform="translate(0 0.897095)"/>
</clipPath>
</defs>
</svg>
