<svg width="120" height="20" viewBox="0 0 120 20" fill="none" xmlns="http://www.w3.org/2000/svg">
<path fill-rule="evenodd" clip-rule="evenodd" d="M32.0672 -0.00146484L21.835 20.0015H12.224L16.5062 11.7114H16.3141C12.7813 16.2974 7.51034 19.3164 0 20.0015V11.8262C0 11.8262 4.80455 11.5424 7.629 8.57287H0V-0.00130707H8.57418V7.05083L8.76662 7.05004L12.2704 -0.00130707H18.7548V7.00611L18.9472 7.0058L22.5824 -0.00146484H32.0672Z" fill="white"/>
<path d="M87.8647 17.7936H90.6261V1.94327H87.8647V17.7936Z" fill="white"/>
<path fill-rule="evenodd" clip-rule="evenodd" d="M72.6412 17.6318C73.2413 17.8813 73.8516 18.0061 74.472 18.0061C75.497 18.0061 76.4141 17.7566 77.2234 17.2575C78.0325 16.7585 78.6597 16.0708 79.1047 15.1941C79.5498 14.3107 79.7723 13.3092 79.7723 12.1899C79.7723 11.0705 79.543 10.0691 79.0845 9.18572C78.6259 8.30234 77.9887 7.61789 77.1727 7.13236C76.3568 6.6401 75.4295 6.39734 74.391 6.40407C73.7303 6.40407 73.0964 6.5322 72.4894 6.78845C71.8826 7.0447 71.3768 7.40884 70.9722 7.88088C70.941 7.91682 70.9106 7.95311 70.8812 7.98978V1.95344H68.1097V17.7937H70.861L70.8554 16.3139C70.9265 16.4011 71.0026 16.4864 71.0834 16.5697C71.5217 17.0216 72.041 17.3755 72.6412 17.6318ZM75.4734 15.0727C75.0216 15.3492 74.5057 15.4875 73.9257 15.4875C73.3525 15.4875 72.8266 15.3458 72.3478 15.0626C71.869 14.7726 71.4881 14.3782 71.2048 13.8791C70.9283 13.3801 70.7901 12.8136 70.7901 12.1797C70.7834 11.5459 70.9182 10.9795 71.1947 10.4805C71.4779 9.9747 71.8589 9.58358 72.3377 9.3071C72.8165 9.02388 73.3459 8.88564 73.9257 8.89239C74.5057 8.88564 75.0216 9.02051 75.4734 9.29699C75.9319 9.56672 76.2825 9.95447 76.5254 10.4602C76.7748 10.9592 76.8996 11.5324 76.8996 12.1797C76.8996 12.8272 76.7748 13.4004 76.5254 13.8993C76.2825 14.3984 75.9319 14.7895 75.4734 15.0727Z" fill="white"/>
<path d="M36.0677 2.90424H39.2236L42.0467 13.2142L45.0499 2.90424H47.6798L50.9369 13.0073L53.6477 2.90424H56.5406L52.2721 17.7937H49.5511L46.2391 7.92374L43.1988 17.7937H40.4475L36.0677 2.90424Z" fill="white"/>
<path fill-rule="evenodd" clip-rule="evenodd" d="M61.2014 18.0566C60.1021 18.0634 59.1108 17.8205 58.2275 17.3284C57.3508 16.8293 56.6597 16.1381 56.1538 15.2547C55.6549 14.3714 55.4054 13.3632 55.4054 12.2303C55.4054 11.1311 55.6617 10.1365 56.1742 9.24637C56.6866 8.35624 57.3811 7.66167 58.2578 7.16266C59.1345 6.66365 60.1122 6.41415 61.1912 6.41415C62.405 6.41415 63.467 6.68388 64.3774 7.22335C65.2945 7.76282 65.979 8.5282 66.4308 9.51947C66.8893 10.504 67.0546 11.6335 66.9265 12.908H58.2622C58.2864 13.4158 58.4131 13.8777 58.6422 14.2938C58.8985 14.7523 59.2559 15.1097 59.7144 15.3659C60.173 15.6222 60.6854 15.7503 61.2519 15.7503C61.6834 15.7436 62.0847 15.6694 62.4556 15.5279C62.8265 15.3795 63.14 15.1806 63.3963 14.931C63.6593 14.6815 63.8448 14.3984 63.9527 14.0814H66.8456C66.6702 14.8569 66.3196 15.5481 65.7936 16.155C65.2675 16.7552 64.6068 17.2238 63.811 17.5609C63.0153 17.8981 62.1454 18.0634 61.2014 18.0566ZM58.6523 10.1264C58.4907 10.4082 58.3787 10.7116 58.3164 11.0367H64.0598C64.0181 10.626 63.8913 10.2518 63.6795 9.91396C63.4367 9.5161 63.1063 9.20928 62.6883 8.99349C62.2702 8.77096 61.7981 8.6597 61.2722 8.6597C60.7124 8.6597 60.2033 8.78781 59.7447 9.04406C59.2862 9.30031 58.922 9.66109 58.6523 10.1264Z" fill="white"/>
<path d="M81.8058 6.64682C81.8058 5.74321 82.0113 4.94074 82.4227 4.23943C82.834 3.53138 83.4107 2.98178 84.1524 2.59067C84.9009 2.19281 85.7742 1.98714 86.7722 1.97366V4.43161C86.3069 4.43836 85.909 4.53614 85.5787 4.72495C85.2549 4.90703 85.0055 5.17339 84.8301 5.52404C84.6687 5.84687 84.5816 6.22112 84.5688 6.64682H86.7115V8.9834H84.5672V17.7937H81.8058V8.9834H80.0255V6.64682H81.8058Z" fill="white"/>
<path fill-rule="evenodd" clip-rule="evenodd" d="M97.6455 18.0363C96.5193 18.0363 95.5112 17.7901 94.6211 17.298C93.7377 16.7989 93.0432 16.1111 92.5374 15.2344C92.0383 14.3511 91.7889 13.3497 91.7889 12.2302C91.7889 11.1042 92.0383 10.0994 92.5374 9.21597C93.0432 8.32584 93.7377 7.63465 94.6211 7.14239C95.5112 6.65011 96.5193 6.40398 97.6455 6.40398C98.7783 6.40398 99.7899 6.65011 100.68 7.14239C101.577 7.63465 102.275 8.32247 102.774 9.20586C103.273 10.0892 103.526 11.0974 103.532 12.2302C103.526 13.3497 103.273 14.3511 102.774 15.2344C102.282 16.1111 101.587 16.7989 100.69 17.298C99.7933 17.7901 98.7783 18.0363 97.6455 18.0363ZM97.6455 15.4975C98.2389 15.4975 98.7649 15.3626 99.2234 15.0929C99.682 14.8164 100.036 14.432 100.286 13.9397C100.535 13.4407 100.66 12.8709 100.66 12.2302C100.66 11.5829 100.535 11.0097 100.286 10.5107C100.036 10.0117 99.682 9.62732 99.2234 9.35758C98.7649 9.08111 98.2389 8.94286 97.6455 8.94286C97.0589 8.94286 96.5362 9.08111 96.0776 9.35758C95.6259 9.62732 95.2752 10.0117 95.0257 10.5107C94.7762 11.0097 94.6548 11.5829 94.6615 12.2302C94.6615 12.8709 94.7863 13.4407 95.0358 13.9397C95.2921 14.432 95.6427 14.8164 96.0877 15.0929C96.5396 15.3626 97.0589 15.4975 97.6455 15.4975Z" fill="white"/>
<path d="M106.516 6.6468H103.442L106.769 17.7936H109.46L111.649 10.6741L114.011 17.7936H116.662L120 6.6468H117.218L115.325 13.585L113.232 6.6468H110.542L108.46 13.7378L106.516 6.6468Z" fill="white"/>
</svg>
