<svg width="115" height="32" viewBox="0 0 115 32" fill="none" xmlns="http://www.w3.org/2000/svg">
<path fill-rule="evenodd" clip-rule="evenodd" d="M27.3814 7.792L27.5993 8.19201C27.8737 8.67809 28.0187 9.22998 28.0196 9.79193V22.1919C28.0151 22.7534 27.8704 23.3044 27.5993 23.7919L27.3658 24.1919C27.0992 24.6816 26.7059 25.0858 26.2295 25.3599L15.7844 31.5679C15.3114 31.8499 14.7745 31.9988 14.2277 31.9999H13.7919C13.2443 32.0052 12.7059 31.8557 12.2352 31.5679L1.77458 25.3759C1.30834 25.0882 0.918091 24.6872 0.638228 24.2079L0.420297 23.8079C0.145931 23.3218 0.000971959 22.77 0 22.2079V9.80793C0.000971959 9.24598 0.145931 8.69409 0.420297 8.20801L0.638228 7.808C0.911037 7.32317 1.30287 6.92035 1.77458 6.64L12.2197 0.432C12.6926 0.15001 13.2295 0.00101463 13.7763 0H14.2277C14.7745 0.00101463 15.3114 0.15001 15.7844 0.432L26.2295 6.624C26.7039 6.90623 27.1004 7.30826 27.3814 7.792ZM14.2277 3.19992H13.7763L4.66996 8.60793L14.0098 14.1439L23.3497 8.60793L14.2277 3.19992ZM24.6728 22.592L15.5665 28V16.928L24.9063 11.3761V22.192L24.6728 22.592ZM68.6131 23.6801H65.3852V6.16979H68.6131V23.6801ZM39.486 24.0555H43.095V17.6964H44.6641L48.4972 24.0555H52.3527L48.1161 17.0514C49.9991 16.4754 51.4112 15.162 51.4112 12.6737V12.5816C51.4112 9.1717 49.0128 7.58192 45.2245 7.58192H39.486V24.0555ZM43.095 15.162V10.4389H45.1348C46.8833 10.4389 47.8696 11.0149 47.8696 12.6968V12.789C47.8696 14.3787 46.9505 15.162 45.1348 15.162H43.095ZM58.2142 23.9329C61.4196 23.9329 63.437 22.4815 63.8181 19.8779H60.7472C60.5454 20.8917 59.8057 21.5599 58.3039 21.5599C56.533 21.5599 55.4795 20.4079 55.3898 18.4034H63.8406V17.4818C63.8406 13.1733 61.1507 11.3532 58.1245 11.3532C54.7174 11.3532 52.0947 13.8184 52.0947 17.62V17.8043C52.0947 21.652 54.6725 23.9329 58.2142 23.9329ZM55.4346 16.3528C55.6812 14.6479 56.6675 13.6572 58.1245 13.6572C59.6712 13.6572 60.5679 14.5327 60.68 16.3528H55.4346ZM74.8052 23.9339C76.7332 23.9339 77.9208 23.0123 78.526 21.7912V23.6805H81.7539V11.6306H78.526V18.7039C78.526 20.478 77.45 21.3535 76.0832 21.3535C74.6936 21.3535 74.0428 20.5701 74.0428 18.9343V11.6306H70.8153V19.3951C70.8153 22.5515 72.5188 23.9339 74.8052 23.9339ZM87.2083 23.6795H83.9576V11.6296H87.2083V13.4728C87.7907 12.3438 89.0459 11.3532 90.7947 11.3532C92.3415 11.3532 93.5071 12.0214 94.0675 13.4498C95.0091 11.9983 96.5331 11.3532 98.0123 11.3532C100.187 11.3532 101.868 12.7586 101.868 15.9612V23.6795H98.6402V16.3298C98.6402 14.7861 97.9675 14.0949 96.8019 14.0949C95.5467 14.0949 94.5383 14.9244 94.5383 16.5602V23.6795H91.3103V16.3298C91.3103 14.7861 90.6155 14.0949 89.4719 14.0949C88.2167 14.0949 87.2083 14.9244 87.2083 16.5602V23.6795ZM109.373 23.9329C112.579 23.9329 114.597 22.4815 114.977 19.8779H111.906C111.704 20.8917 110.965 21.5599 109.463 21.5599C107.692 21.5599 106.639 20.4079 106.549 18.4034H115V17.4818C115 13.1733 112.31 11.3532 109.284 11.3532C105.876 11.3532 103.254 13.8184 103.254 17.62V17.8043C103.254 21.652 105.832 23.9329 109.373 23.9329ZM106.594 16.3528C106.841 14.6479 107.827 13.6572 109.284 13.6572C110.83 13.6572 111.727 14.5327 111.84 16.3528H106.594Z" fill="white"/>
</svg>
