<svg width="20" height="20" viewBox="0 0 20 20" fill="none" xmlns="http://www.w3.org/2000/svg">
<path d="M9.07076 1.09232C9.4145 0.275865 10.5853 0.275866 10.929 1.09233L12.9578 5.91121C13.1028 6.25541 13.4304 6.49059 13.8065 6.52038L19.0725 6.93746C19.9648 7.00813 20.3265 8.10811 19.6468 8.68338L15.6347 12.0786C15.3481 12.3212 15.2229 12.7018 15.3104 13.0643L16.5362 18.141C16.7439 19.0011 15.7968 19.681 15.0329 19.2201L10.5244 16.4995C10.2024 16.3052 9.79738 16.3052 9.47536 16.4995L4.96687 19.2201C4.20299 19.681 3.25583 19.0011 3.46351 18.141L4.6893 13.0643C4.77686 12.7018 4.6517 12.3212 4.36513 12.0786L0.35294 8.68338C-0.32684 8.10811 0.0349458 7.00813 0.927169 6.93746L6.19323 6.52038C6.56938 6.49059 6.89703 6.25541 7.04194 5.91121L9.07076 1.09232Z" fill="#F79A30"/>
</svg>
