<svg width="48" height="42" viewBox="0 0 48 42" fill="none" xmlns="http://www.w3.org/2000/svg">
<rect x="0.5" y="0.5" width="47" height="41" rx="7.5" fill="#FBFBFB"/>
<rect x="0.5" y="0.5" width="47" height="41" rx="7.5" stroke="#E4E4E7"/>
<g clip-path="url(#clip0_90_1019)">
<path d="M32 13.6388V23.342C32 23.6948 31.714 23.9808 31.3612 23.9808C31.0084 23.9808 30.7224 23.6948 30.7224 23.342V15.1812L18.0906 27.8129C17.9658 27.9377 17.8024 28 17.6388 28C17.4753 28 17.3119 27.9377 17.1871 27.8129C16.9376 27.5634 16.9376 27.1589 17.1871 26.9095L29.8189 14.2776H21.658C21.3052 14.2776 21.0192 13.9916 21.0192 13.6388C21.0192 13.286 21.3052 13 21.658 13H31.3612C31.714 13 32 13.286 32 13.6388Z" fill="black"/>
</g>
<defs>
<clipPath id="clip0_90_1019">
<rect width="15" height="15" fill="white" transform="translate(17 13)"/>
</clipPath>
</defs>
</svg>
