<svg width="85" height="22" viewBox="0 0 85 22" fill="none" xmlns="http://www.w3.org/2000/svg">
<g clip-path="url(#clip0_43_589)">
<path d="M20.9711 12.1844H17.2202C13.9437 12.1844 11.2877 14.8405 11.2877 18.1169V21.8679C16.4589 21.4844 20.5876 17.3556 20.9711 12.1844Z" fill="#9C9C9C"/>
<path d="M9.71267 21.8679V18.1169C9.71267 14.8405 7.05659 12.1844 3.78015 12.1844H0.0292358C0.412661 17.3556 4.54145 21.4844 9.71267 21.8679Z" fill="#9C9C9C"/>
<path d="M20.9711 10.6095C20.5876 5.43824 16.4589 1.30945 11.2877 0.926025V4.67694C11.2877 7.95337 13.9437 10.6095 17.2202 10.6095H20.9711Z" fill="#9C9C9C"/>
<path d="M9.71267 0.926025C4.54145 1.30945 0.412661 5.43824 0.0292358 10.6095H3.78015C7.05659 10.6095 9.71267 7.95337 9.71267 4.67694V0.926025Z" fill="#9C9C9C"/>
<path d="M7.1311 11.397C8.58667 10.6698 9.7729 9.48352 10.5001 8.02795C11.2274 9.48352 12.4136 10.6698 13.8692 11.397C12.4136 12.1243 11.2274 13.3105 10.5001 14.7661C9.7729 13.3105 8.58667 12.1243 7.1311 11.397Z" fill="#6F6F6F"/>
</g>
<g clip-path="url(#clip1_43_589)">
<path fill-rule="evenodd" clip-rule="evenodd" d="M45.4167 7.03188C44.5534 6.45501 43.5383 6.14709 42.5 6.14709V0.897095C44.5767 0.897095 46.6068 1.51291 48.3335 2.66666C50.0602 3.82042 51.406 5.46029 52.2007 7.3789C52.9954 9.29751 53.2034 11.4087 52.7982 13.4455C52.3931 15.4823 51.3931 17.3533 49.9246 18.8217C48.4562 20.2902 46.5852 21.2902 44.5484 21.6953C42.5117 22.1005 40.4004 21.8925 38.4818 21.0978C36.5632 20.3031 34.9233 18.9573 33.7696 17.2306C32.6158 15.5039 32 13.4738 32 11.3971H37.25C37.25 12.4354 37.5579 13.4505 38.1348 14.3138C38.7117 15.1772 39.5316 15.8501 40.4909 16.2475C41.4502 16.6448 42.5058 16.7488 43.5242 16.5462C44.5426 16.3436 45.4781 15.8436 46.2123 15.1094C46.9465 14.3752 47.4465 13.4397 47.6491 12.4213C47.8517 11.4029 47.7477 10.3473 47.3504 9.38802C46.953 8.42869 46.2801 7.60875 45.4167 7.03188Z" fill="#9C9C9C"/>
<path fill-rule="evenodd" clip-rule="evenodd" d="M37.25 0.897097C37.25 1.58654 37.1142 2.26923 36.8504 2.90618C36.5865 3.54314 36.1998 4.1219 35.7123 4.60941C35.2248 5.09692 34.646 5.48363 34.0091 5.74747C33.3721 6.0113 32.6894 6.1471 32 6.1471L32 11.3971C33.3789 11.3971 34.7443 11.1255 36.0182 10.5978C37.2921 10.0702 38.4496 9.29673 39.4246 8.3217C40.3996 7.34672 41.1731 6.1892 41.7007 4.91527C42.2284 3.64135 42.5 2.27597 42.5 0.897095L37.25 0.897097Z" fill="#9C9C9C"/>
</g>
<g clip-path="url(#clip2_43_589)">
<path fill-rule="evenodd" clip-rule="evenodd" d="M69.25 0.897095C72.1495 0.897095 74.5 3.2476 74.5 6.14709V0.897095H79.75C82.6495 0.897095 85 3.2476 85 6.14709C85 9.04656 82.6495 11.3971 79.75 11.3971C82.6495 11.3971 85 13.7476 85 16.6471C85 18.0868 84.4205 19.3912 83.482 20.3396L83.4623 20.3594L83.4449 20.3767C82.4962 21.3166 81.1909 21.8971 79.75 21.8971C78.3189 21.8971 77.0215 21.3245 76.0745 20.3959C76.0622 20.3838 76.0499 20.3716 76.0377 20.3594C76.0262 20.3479 76.0147 20.3364 76.0033 20.3248C75.0735 19.3776 74.5 18.0793 74.5 16.6471C74.5 19.5466 72.1495 21.8971 69.25 21.8971C66.3505 21.8971 64 19.5466 64 16.6471V11.3971H69.25C66.3505 11.3971 64 9.04656 64 6.14709C64 3.2476 66.3505 0.897095 69.25 0.897095ZM73.45 6.14709C73.45 8.4667 71.5696 10.3471 69.25 10.3471V1.94709C71.5696 1.94709 73.45 3.8275 73.45 6.14709ZM83.95 16.6471C83.95 14.3275 82.0696 12.4471 79.75 12.4471C77.4304 12.4471 75.55 14.3275 75.55 16.6471H83.95ZM65.05 12.4471V16.6471C65.05 18.9667 66.9304 20.8471 69.25 20.8471C71.5696 20.8471 73.45 18.9667 73.45 16.6471V12.4471H65.05ZM75.55 10.3471V1.94709H79.75C82.0696 1.94709 83.95 3.8275 83.95 6.14709C83.95 8.4667 82.0696 10.3471 79.75 10.3471H75.55Z" fill="#9C9C9C"/>
</g>
<defs>
<clipPath id="clip0_43_589">
<rect width="21" height="21" fill="white" transform="translate(0 0.897095)"/>
</clipPath>
<clipPath id="clip1_43_589">
<rect width="21" height="21" fill="white" transform="translate(32 0.897095)"/>
</clipPath>
<clipPath id="clip2_43_589">
<rect width="21" height="21" fill="white" transform="translate(64 0.897095)"/>
</clipPath>
</defs>
</svg>
