<svg width="36" height="36" viewBox="0 0 36 36" fill="none" xmlns="http://www.w3.org/2000/svg">
<path d="M32.3205 5.82932L18.5392 0.107499C18.194 -0.0357978 17.8059 -0.0358682 17.4608 0.107499L3.67952 5.82932C3.15464 6.04729 2.8125 6.55973 2.8125 7.12806V14.0837C2.8125 23.6612 8.60126 32.2764 17.4686 35.8957C17.8092 36.0347 18.1908 36.0347 18.5314 35.8957C27.3986 32.2765 33.1875 23.6613 33.1875 14.0837V7.12806C33.1875 6.55973 32.8454 6.04729 32.3205 5.82932ZM30.375 14.0837C30.375 22.2256 25.5938 29.7207 18 33.0663C10.6092 29.81 5.625 22.4462 5.625 14.0837V8.06687L18 2.92886L30.375 8.06687V14.0837ZM16.4457 18.8238L22.49 12.7795C23.0392 12.2304 23.9295 12.2303 24.4787 12.7795C25.0279 13.3287 25.0279 14.2191 24.4787 14.7682L17.44 21.8069C16.8907 22.3561 16.0004 22.3559 15.4513 21.8069L11.5213 17.8768C10.9721 17.3276 10.9721 16.4372 11.5213 15.8881C12.0705 15.3389 12.9608 15.3389 13.51 15.8881L16.4457 18.8238Z" fill="#214651"/>
</svg>
