<svg width="140" height="57" viewBox="0 0 140 57" fill="none" xmlns="http://www.w3.org/2000/svg">
<path fill-rule="evenodd" clip-rule="evenodd" d="M38.5695 17.6187L27.06 40.1187H16.2493L21.066 30.7937H20.8499C16.8761 35.9522 10.9471 39.348 2.49927 40.1187V30.9228C2.49927 30.9228 7.90358 30.6035 11.0806 27.2633H2.49927V17.6188H12.1438V25.5513L12.3602 25.5504L16.3014 17.6188H23.5953V25.501L23.8116 25.5007L27.9006 17.6187H38.5695Z" fill="#202020"/>
<path d="M101.332 37.6352H104.438V19.8062H101.332V37.6352Z" fill="#202020"/>
<path fill-rule="evenodd" clip-rule="evenodd" d="M84.2085 37.4531C84.8835 37.7337 85.57 37.8741 86.2678 37.8741C87.4207 37.8741 88.4523 37.5935 89.3626 37.0321C90.2727 36.4708 90.9782 35.6972 91.4788 34.7111C91.9795 33.7175 92.2297 32.591 92.2297 31.3318C92.2297 30.0727 91.9718 28.9464 91.4561 27.9527C90.9402 26.959 90.2235 26.1891 89.3056 25.643C88.3878 25.0893 87.3448 24.8162 86.1767 24.8238C85.4335 24.8238 84.7205 24.9679 84.0377 25.2562C83.3551 25.5444 82.7862 25.954 82.3311 26.485C82.296 26.5254 82.2618 26.5662 82.2287 26.6075V19.8176H79.1112V37.6352H82.206L82.1997 35.9707C82.2797 36.0688 82.3653 36.1647 82.4562 36.2585C82.9492 36.7667 83.5333 37.1648 84.2085 37.4531ZM87.3942 34.5746C86.886 34.8856 86.3057 35.0411 85.6533 35.0411C85.0086 35.0411 84.417 34.8817 83.8785 34.5632C83.3398 34.237 82.9113 33.7933 82.5927 33.232C82.2817 32.6707 82.1262 32.0335 82.1262 31.3205C82.1187 30.6075 82.2703 29.9703 82.5813 29.4091C82.9 28.8402 83.3285 28.4002 83.8671 28.0892C84.4056 27.7707 85.0011 27.6152 85.6533 27.6227C86.3057 27.6152 86.886 27.7669 87.3942 28.0779C87.91 28.3813 88.3043 28.8174 88.5775 29.3863C88.8581 29.9476 88.9985 30.5923 88.9985 31.3205C88.9985 32.0487 88.8581 32.6935 88.5775 33.2547C88.3043 33.8161 87.91 34.256 87.3942 34.5746Z" fill="#202020"/>
<path d="M43.0693 20.8871H46.6192L49.7947 32.4841L53.1728 20.8871H56.1311L59.7947 32.2513L62.844 20.8871H66.098L61.2966 37.6352H58.236L54.5105 26.5332L51.0907 37.6352H47.996L43.0693 20.8871Z" fill="#202020"/>
<path fill-rule="evenodd" clip-rule="evenodd" d="M71.3405 37.9309C70.104 37.9385 68.989 37.6654 67.9954 37.1118C67.0093 36.5504 66.2319 35.7729 65.6629 34.7793C65.1017 33.7857 64.821 32.6517 64.821 31.3773C64.821 30.1409 65.1093 29.0222 65.6858 28.0209C66.2622 27.0197 67.0434 26.2384 68.0295 25.6771C69.0157 25.1158 70.1154 24.8351 71.329 24.8351C72.6944 24.8351 73.889 25.1385 74.913 25.7454C75.9447 26.3522 76.7145 27.2131 77.2228 28.3281C77.7385 29.4355 77.9244 30.706 77.7803 32.1397H68.0344C68.0617 32.7108 68.2042 33.2304 68.4619 33.6984C68.7502 34.2142 69.1522 34.6162 69.6679 34.9044C70.1838 35.1927 70.7602 35.3368 71.3974 35.3368C71.8828 35.3292 72.3342 35.2458 72.7513 35.0865C73.1685 34.9197 73.5212 34.6959 73.8094 34.4152C74.1053 34.1345 74.3139 33.816 74.4353 33.4595H77.6893C77.4921 34.3318 77.0977 35.1093 76.506 35.7919C75.9143 36.467 75.171 36.9942 74.2759 37.3734C73.3809 37.7527 72.4024 37.9385 71.3405 37.9309ZM68.4733 29.0108C68.2915 29.3278 68.1655 29.669 68.0954 30.0348H74.5558C74.5089 29.5728 74.3663 29.1518 74.128 28.7718C73.8549 28.3243 73.4833 27.9792 73.013 27.7365C72.5428 27.4862 72.0118 27.361 71.4202 27.361C70.7906 27.361 70.2179 27.5051 69.702 27.7934C69.1863 28.0816 68.7767 28.4874 68.4733 29.0108Z" fill="#202020"/>
<path d="M94.517 25.0969C94.517 24.0804 94.7483 23.1778 95.211 22.3889C95.6736 21.5925 96.3223 20.9743 97.1566 20.5344C97.9985 20.0868 98.9809 19.8555 100.103 19.8403V22.6051C99.58 22.6127 99.1325 22.7227 98.7609 22.9351C98.3968 23.1399 98.1161 23.4395 97.9189 23.8339C97.7374 24.197 97.6394 24.618 97.625 25.0969H100.035V27.7251H97.6232V37.6352H94.517V27.7251H92.5145V25.0969H94.517Z" fill="#202020"/>
<path fill-rule="evenodd" clip-rule="evenodd" d="M112.334 37.9081C111.067 37.9081 109.933 37.6312 108.932 37.0776C107.938 36.5162 107.157 35.7426 106.588 34.7565C106.027 33.7629 105.746 32.6365 105.746 31.3772C105.746 30.1106 106.027 28.9804 106.588 27.9867C107.157 26.9855 107.938 26.208 108.932 25.6543C109.933 25.1006 111.067 24.8237 112.334 24.8237C113.608 24.8237 114.746 25.1006 115.747 25.6543C116.756 26.208 117.541 26.9817 118.103 27.9753C118.664 28.969 118.948 30.103 118.956 31.3772C118.948 32.6365 118.664 33.7629 118.103 34.7565C117.549 35.7426 116.768 36.5162 115.759 37.0776C114.75 37.6312 113.608 37.9081 112.334 37.9081ZM112.334 35.0524C113.002 35.0524 113.593 34.9006 114.109 34.5972C114.625 34.2862 115.023 33.8539 115.304 33.3001C115.584 32.7389 115.725 32.0979 115.725 31.3772C115.725 30.6491 115.584 30.0044 115.304 29.4431C115.023 28.8818 114.625 28.4494 114.109 28.146C113.593 27.835 113.002 27.6795 112.334 27.6795C111.674 27.6795 111.086 27.835 110.57 28.146C110.062 28.4494 109.668 28.8818 109.387 29.4431C109.107 30.0044 108.97 30.6491 108.978 31.3772C108.978 32.0979 109.118 32.7389 109.399 33.3001C109.687 33.8539 110.081 34.2862 110.582 34.5972C111.09 34.9006 111.674 35.0524 112.334 35.0524Z" fill="#202020"/>
<path d="M122.312 25.0968H118.854L122.597 37.6352H125.623L128.085 29.6269L130.743 37.6352H133.724L137.479 25.0968H134.35L132.22 32.9012L129.867 25.0968H126.841L124.499 33.073L122.312 25.0968Z" fill="#202020"/>
</svg>
