<svg width="32" height="32" viewBox="0 0 32 32" fill="none" xmlns="http://www.w3.org/2000/svg">
<path fill-rule="evenodd" clip-rule="evenodd" d="M14.4008 23.9999C14.4008 23.1162 15.1171 22.3999 16.0008 22.3999H25.6008C26.4845 22.3999 27.2008 23.1162 27.2008 23.9999C27.2008 24.8836 26.4845 25.5999 25.6008 25.5999H16.0008C15.1171 25.5999 14.4008 24.8836 14.4008 23.9999ZM4.80078 7.9999C4.80078 7.11624 5.51712 6.3999 6.40078 6.3999H25.6008C26.4845 6.3999 27.2008 7.11624 27.2008 7.9999C27.2008 8.88355 26.4845 9.5999 25.6008 9.5999H6.40078C5.51712 9.5999 4.80078 8.88355 4.80078 7.9999ZM4.80078 15.9999C4.80078 15.1163 5.51712 14.3999 6.40078 14.3999H25.6008C26.4845 14.3999 27.2008 15.1163 27.2008 15.9999C27.2008 16.8836 26.4845 17.5999 25.6008 17.5999H6.40078C5.51712 17.5999 4.80078 16.8836 4.80078 15.9999Z" fill="black"/>
</svg>
